<?xml version="1.0" encoding="iso-8859-1"?>
<!-- Generator: Adobe Illustrator 19.0.0, SVG Export Plug-In . SVG Version: 6.00 Build 0)  -->
<svg version="1.1" id="Capa_1" xmlns="http://www.w3.org/2000/svg" xmlns:xlink="http://www.w3.org/1999/xlink" x="0px" y="0px"
	 viewBox="0 0 512 512" style="enable-background:new 0 0 512 512;" xml:space="preserve">
<circle style="fill:#05CDFF;" cx="256" cy="256" r="256"/>
<path style="fill:#0485BD;" d="M374.682,165.131l-0.025,0.025c-5.447-5.037-13.651-6.442-20.651-2.882
	c-3.559,1.811-16.53,9.849-30.608,19.451l-47.816-47.816h-40.86l-20.506,66.401l-66.401-66.401h-44.749L170.19,303.83
	c-2.164,7.134-4.215,13.078-6.161,17.835c-4.611,11.267-9.241,18.484-20.105,18.484c-4.197,0-11.451-0.89-19.457-3.243v37.617
	l137.402,137.402c124.145-2.795,226.46-93.963,246.538-213.068L374.682,165.131z"/>
<g>
	<path style="fill:#FFFFFF;" d="M124.469,336.907c8.006,2.353,15.26,3.243,19.457,3.243c10.864,0,15.494-7.216,20.105-18.484
		c1.946-4.758,3.998-10.701,6.161-17.835L103.068,133.91h44.749l46.048,132.305l40.858-132.305h40.859l-71.341,203.646
		c-8.039,23.25-28.099,40.535-58.046,40.535c-8.245,0-15.2-1.392-21.727-3.567v-37.617H124.469z"/>
	<path style="fill:#FFFFFF;" d="M408.932,260.434c0,10.077-8.169,18.245-18.245,18.245s-91.525-8.169-91.525-18.245
		c0-10.076,81.449-18.245,91.525-18.245C400.764,242.189,408.932,250.357,408.932,260.434z"/>
	<path style="fill:#FFFFFF;" d="M378.541,350.227c-4.568,8.981-15.553,12.559-24.534,7.99c-8.981-4.568-77.875-48.776-73.306-57.757
		c4.568-8.981,80.869,20.665,89.85,25.233C379.532,330.262,383.109,341.246,378.541,350.227z"/>
	<path style="fill:#FFFFFF;" d="M378.541,170.265c-4.568-8.981-15.553-12.559-24.534-7.99c-8.981,4.568-77.875,48.776-73.306,57.757
		c4.568,8.981,80.869-20.665,89.85-25.233C379.532,190.23,383.109,179.246,378.541,170.265z"/>
</g>
<g>
</g>
<g>
</g>
<g>
</g>
<g>
</g>
<g>
</g>
<g>
</g>
<g>
</g>
<g>
</g>
<g>
</g>
<g>
</g>
<g>
</g>
<g>
</g>
<g>
</g>
<g>
</g>
<g>
</g>
</svg>
